<svg width="442" height="604" viewBox="0 0 442 604" fill="none" xmlns="http://www.w3.org/2000/svg">
<rect opacity="0.12" width="442" height="604" fill="#1994FF"/>
<path fill-rule="evenodd" clip-rule="evenodd" d="M139.1 61.0233C137.508 58.9282 135.488 56.9218 133.467 55C135.488 53.0782 137.508 51.0718 139.1 48.9767C141.035 46.4373 142.48 43.5882 142.48 40.375C142.48 34.6674 137.827 29.9632 132.706 29.1308C133.236 29.0447 133.771 29 134.307 29C140.016 29 145.682 34.0765 145.682 40.375C145.682 43.5882 144.237 46.4373 142.302 48.9767C140.709 51.0718 138.69 53.0782 136.669 55C138.69 56.9218 140.709 58.9282 142.302 61.0233C144.235 63.5627 145.682 66.4118 145.682 69.625C145.682 75.9235 140.016 81 134.307 81C133.771 81 133.236 80.9553 132.706 80.8691C137.827 80.0368 142.48 75.3326 142.48 69.625C142.48 66.4118 141.033 63.5627 139.1 61.0233ZM132.706 51.2158C131.28 49.8102 129.973 48.4226 128.897 47.0093C127.172 44.7387 126.182 42.5785 126.182 40.375C126.182 36.5588 129.267 33.2538 132.706 32.441C132.177 32.3161 131.64 32.25 131.105 32.25C127.086 32.25 122.98 35.9723 122.98 40.375C122.98 42.5785 123.97 44.7387 125.695 47.0093C127.164 48.9377 129.062 50.8183 131.105 52.7618C131.651 52.2427 132.186 51.728 132.706 51.2158ZM125.695 62.9907C127.162 61.0623 129.062 59.1817 131.105 57.2382C131.651 57.7573 132.186 58.272 132.706 58.7842C131.28 60.1898 129.972 61.5774 128.897 62.9907C127.172 65.2613 126.182 67.4215 126.182 69.625C126.182 73.4412 129.267 76.7462 132.706 77.559C132.177 77.6839 131.64 77.75 131.105 77.75C127.086 77.75 122.98 74.0277 122.98 69.625C122.98 67.4215 123.97 65.2613 125.695 62.9907Z" fill="#001D86"/>
<path fill-rule="evenodd" clip-rule="evenodd" d="M129.79 29.0884C124.557 29.7886 119.73 34.5612 119.73 40.375C119.73 43.5882 121.177 46.4373 123.11 48.9767C124.702 51.0718 126.722 53.0782 128.743 55C126.722 56.9218 124.702 58.9282 123.11 61.0233C121.177 63.5627 119.73 66.4118 119.73 69.625C119.73 75.4388 124.557 80.2114 129.79 80.9116C129.354 80.9699 128.915 81 128.476 81C122.766 81 117.101 75.9235 117.101 69.625C117.101 66.4118 118.548 63.5627 120.481 61.0233C122.073 58.9282 124.092 56.9218 126.114 55C124.092 53.0782 122.073 51.0718 120.481 48.9767C118.548 46.4373 117.101 43.5882 117.101 40.375C117.101 34.0765 122.766 29 128.476 29C128.915 29 129.354 29.0301 129.79 29.0884ZM129.79 32.3793C133.343 33.0713 136.601 36.4533 136.601 40.375C136.601 42.5785 135.61 44.7387 133.886 47.0093C132.739 48.5166 131.328 49.9948 129.79 51.4966C130.22 51.9161 130.659 52.3375 131.105 52.7618C133.148 50.8183 135.048 48.9377 136.515 47.0093C138.24 44.7387 139.23 42.5785 139.23 40.375C139.23 35.9723 135.124 32.25 131.105 32.25C130.666 32.25 130.226 32.2944 129.79 32.3793ZM129.79 58.5034C130.22 58.0839 130.659 57.6625 131.105 57.2382C133.148 59.1817 135.046 61.0623 136.515 62.9907C138.24 65.2613 139.23 67.4215 139.23 69.625C139.23 74.0277 135.124 77.75 131.105 77.75C130.666 77.75 130.226 77.7056 129.79 77.6207C133.343 76.9287 136.601 73.5467 136.601 69.625C136.601 67.4215 135.61 65.2613 133.886 62.9907C132.737 61.4834 131.327 60.0052 129.79 58.5034Z" fill="#BEF9EB"/>
<path fill-rule="evenodd" clip-rule="evenodd" d="M130.521 29.0176C125.016 29.348 119.73 34.2915 119.73 40.375C119.73 43.5882 121.177 46.4373 123.11 48.9767C124.703 51.0718 126.722 53.0782 128.743 55C126.722 56.9218 124.703 58.9282 123.11 61.0233C121.177 63.5627 119.73 66.4118 119.73 69.625C119.73 75.7085 125.016 80.652 130.521 80.9824C130.326 80.9941 130.131 81 129.936 81C124.227 81 118.561 75.9235 118.561 69.625C118.561 66.4118 120.009 63.5627 121.941 61.0233C123.534 58.9282 125.553 56.9218 127.575 55C125.553 53.0782 123.534 51.0718 121.941 48.9767C120.009 46.4373 118.561 43.5882 118.561 40.375C118.561 34.0765 124.227 29 129.936 29C130.131 29 130.326 29.0059 130.521 29.0176ZM130.521 32.2759C134.344 32.6123 138.061 36.1856 138.061 40.375C138.061 42.5785 137.071 44.7387 135.347 47.0093C134.021 48.7525 132.341 50.4567 130.521 52.2037C130.714 52.3892 130.909 52.5752 131.105 52.7618C133.148 50.8183 135.048 48.9377 136.515 47.0093C138.24 44.7387 139.23 42.5785 139.23 40.375C139.23 35.9723 135.124 32.25 131.105 32.25C130.91 32.25 130.715 32.2587 130.521 32.2759ZM130.521 77.7241C134.344 77.3877 138.061 73.8144 138.061 69.625C138.061 67.4215 137.071 65.2613 135.347 62.9907C134.019 61.2475 132.34 59.5433 130.521 57.7963C130.714 57.6108 130.909 57.4248 131.105 57.2382C133.148 59.1817 135.046 61.0623 136.515 62.9907C138.24 65.2613 139.23 67.4215 139.23 69.625C139.23 74.0277 135.124 77.75 131.105 77.75C130.91 77.75 130.715 77.7413 130.521 77.7241Z" fill="#D7AD1A"/>
<path d="M30.2203 66.7899C30.3762 67.1405 30.5806 67.5008 30.8338 67.8708C31.1065 68.2214 31.4278 68.5427 31.7979 68.8349C32.1874 69.127 32.6353 69.3705 33.1417 69.5652C33.6481 69.7405 34.2129 69.8281 34.8361 69.8281C35.4788 69.8281 36.0533 69.721 36.5597 69.5068C37.0855 69.2731 37.5237 68.9712 37.8743 68.6012C38.2443 68.2117 38.5267 67.7637 38.7215 67.2574C38.9162 66.7315 39.0136 66.1765 39.0136 65.5922C39.0136 64.6963 38.7799 63.9854 38.3125 63.4596C37.8645 62.9338 37.2997 62.4956 36.6181 62.145C35.9365 61.7944 35.1964 61.4731 34.3979 61.181C33.6188 60.8888 32.8885 60.5285 32.2069 60.1001C31.5252 59.6521 30.9507 59.0873 30.4833 58.4057C30.0353 57.724 29.8114 56.8087 29.8114 55.6596C29.8114 54.8416 29.9574 54.1015 30.2496 53.4394C30.5417 52.7577 30.9604 52.1735 31.5057 51.6866C32.0705 51.1997 32.7424 50.8199 33.5215 50.5472C34.3005 50.2746 35.1769 50.1383 36.1507 50.1383C37.0855 50.1383 37.8938 50.2551 38.5754 50.4888C39.2571 50.703 39.89 51.0439 40.4743 51.5113C40.299 51.8424 40.1529 52.1929 40.0361 52.563C39.9192 52.933 39.8024 53.4004 39.6855 53.9652H39.335C39.2376 53.6926 39.1012 53.4004 38.926 53.0888C38.7702 52.7577 38.5462 52.4559 38.2541 52.1832C37.9814 51.9105 37.6503 51.6866 37.2608 51.5113C36.8713 51.3165 36.4039 51.2192 35.8586 51.2192C35.3132 51.2192 34.8069 51.3068 34.3394 51.4821C33.8915 51.6574 33.4923 51.9105 33.1417 52.2416C32.8106 52.5532 32.5477 52.933 32.3529 53.3809C32.1777 53.8289 32.09 54.3158 32.09 54.8416C32.09 55.757 32.314 56.4776 32.7619 57.0034C33.2293 57.5293 33.8039 57.9772 34.4855 58.3472C35.1672 58.6978 35.8975 59.0192 36.6765 59.3113C37.475 59.5839 38.2151 59.9248 38.8968 60.3338C39.5784 60.7427 40.1432 61.2686 40.5911 61.9113C41.0586 62.554 41.2923 63.4109 41.2923 64.4821C41.2923 65.378 41.1267 66.2251 40.7956 67.0236C40.484 67.8221 40.0166 68.5233 39.3934 69.127C38.7896 69.7113 38.0398 70.169 37.1439 70.5001C36.2675 70.8117 35.2645 70.9675 34.135 70.9675C32.9275 70.9675 31.9439 70.8117 31.1844 70.5001C30.4443 70.169 29.8211 69.7989 29.3147 69.3899C29.49 68.942 29.6069 68.5427 29.6653 68.1922C29.7432 67.8221 29.8114 67.3547 29.8698 66.7899H30.2203ZM47.9529 63.6933C47.9529 64.5113 48.0211 65.3001 48.1574 66.0596C48.3132 66.8192 48.5664 67.5008 48.917 68.1045C49.2675 68.6888 49.735 69.1562 50.3192 69.5068C50.9035 69.8574 51.6241 70.0326 52.481 70.0326C53.338 70.0326 54.0586 69.8574 54.6428 69.5068C55.2271 69.1562 55.6945 68.6888 56.0451 68.1045C56.3956 67.5008 56.6391 66.8192 56.7754 66.0596C56.9312 65.3001 57.0091 64.5113 57.0091 63.6933C57.0091 62.8753 56.9312 62.0866 56.7754 61.327C56.6391 60.5675 56.3956 59.8956 56.0451 59.3113C55.6945 58.7075 55.2271 58.2304 54.6428 57.8798C54.0586 57.5293 53.338 57.354 52.481 57.354C51.6241 57.354 50.9035 57.5293 50.3192 57.8798C49.735 58.2304 49.2675 58.7075 48.917 59.3113C48.5664 59.8956 48.3132 60.5675 48.1574 61.327C48.0211 62.0866 47.9529 62.8753 47.9529 63.6933ZM45.3821 63.6933C45.3821 62.369 45.5866 61.2491 45.9956 60.3338C46.4241 59.3989 46.9792 58.6491 47.6608 58.0843C48.3424 57.5001 49.102 57.0813 49.9395 56.8281C50.7964 56.5555 51.6436 56.4192 52.481 56.4192C53.338 56.4192 54.1851 56.5555 55.0226 56.8281C55.8601 57.0813 56.6196 57.5001 57.3012 58.0843C57.9829 58.6491 58.5282 59.3989 58.9372 60.3338C59.3657 61.2491 59.5799 62.369 59.5799 63.6933C59.5799 65.0177 59.3657 66.1472 58.9372 67.0821C58.5282 67.9974 57.9829 68.7472 57.3012 69.3315C56.6196 69.8963 55.8601 70.2956 55.0226 70.5293C54.1851 70.763 53.338 70.8798 52.481 70.8798C51.6436 70.8798 50.7964 70.763 49.9395 70.5293C49.102 70.2956 48.3424 69.8963 47.6608 69.3315C46.9792 68.7472 46.4241 67.9974 45.9956 67.0821C45.5866 66.1472 45.3821 65.0177 45.3821 63.6933ZM65.3251 56.9742C65.3251 56.312 65.3154 55.5914 65.2959 54.8124C65.2959 54.0334 65.2862 53.2641 65.2667 52.5045C65.2472 51.745 65.218 51.0244 65.1791 50.3427C65.1596 49.6416 65.1304 49.0476 65.0914 48.5607C65.6368 48.6581 66.075 48.7068 66.406 48.7068C66.7371 48.7068 67.1753 48.6581 67.7206 48.5607C67.6817 49.0476 67.6427 49.6416 67.6038 50.3427C67.5843 51.0244 67.5648 51.745 67.5454 52.5045C67.5259 53.2641 67.5064 54.0334 67.4869 54.8124C67.4869 55.5914 67.4869 56.312 67.4869 56.9742V62.2618C67.4869 62.924 67.4869 63.6446 67.4869 64.4236C67.5064 65.2027 67.5259 65.972 67.5454 66.7315C67.5648 67.4911 67.5843 68.2117 67.6038 68.8933C67.6427 69.575 67.6817 70.1398 67.7206 70.5877C67.2727 70.5487 66.8345 70.5293 66.406 70.5293C65.9776 70.5293 65.5394 70.5487 65.0914 70.5877C65.1304 70.1398 65.1596 69.575 65.1791 68.8933C65.218 68.2117 65.2472 67.4911 65.2667 66.7315C65.2862 65.972 65.2959 65.2027 65.2959 64.4236C65.3154 63.6446 65.3251 62.924 65.3251 62.2618V56.9742ZM78.5098 70.5877C77.6139 68.2896 76.7083 65.9914 75.7929 63.6933C74.897 61.3952 73.9135 59.0678 72.8424 56.7113C73.0955 56.7502 73.339 56.7892 73.5727 56.8281C73.8064 56.8476 74.0499 56.8574 74.303 56.8574C74.5173 56.8574 74.7315 56.8476 74.9457 56.8281C75.16 56.7892 75.3742 56.7502 75.5884 56.7113C76.1922 58.6394 76.8446 60.5383 77.5457 62.4079C78.2663 64.2581 79.0648 66.157 79.9412 68.1045C80.3308 67.306 80.7105 66.4491 81.0806 65.5338C81.4701 64.5989 81.8499 63.6349 82.2199 62.6416C82.6094 61.6484 82.9794 60.6551 83.33 59.6618C83.7 58.6491 84.0603 57.6656 84.4109 56.7113C84.7615 56.8087 85.0633 56.8574 85.3165 56.8574C85.5697 56.8574 85.8716 56.8087 86.2221 56.7113C85.1705 59.0678 84.1382 61.3952 83.1255 63.6933C82.1128 65.9914 81.1877 68.2896 80.3502 70.5877C80.0581 70.5487 79.7562 70.5293 79.4446 70.5293C79.133 70.5293 78.8214 70.5487 78.5098 70.5877ZM96.0169 57.354C95.2963 57.354 94.6828 57.5195 94.1764 57.8506C93.6895 58.1817 93.2805 58.6004 92.9495 59.1068C92.6379 59.5937 92.3944 60.139 92.2191 60.7427C92.0633 61.327 91.9659 61.8821 91.927 62.4079C92.5307 62.4274 93.154 62.4469 93.7967 62.4663C94.4588 62.4858 95.1015 62.4956 95.7247 62.4956C96.3674 62.4956 97.0199 62.4858 97.682 62.4663C98.3442 62.4469 98.9869 62.4274 99.6101 62.4079C99.6101 61.8821 99.5614 61.327 99.4641 60.7427C99.3862 60.1585 99.2109 59.6132 98.9382 59.1068C98.685 58.6004 98.3247 58.1817 97.8573 57.8506C97.3899 57.5195 96.7764 57.354 96.0169 57.354ZM89.2686 64.1023C89.2686 61.7068 89.8334 59.8274 90.9629 58.4641C92.112 57.1008 93.7772 56.4192 95.9585 56.4192C96.9907 56.4192 97.8768 56.5847 98.6169 56.9158C99.3764 57.2274 100.009 57.6559 100.516 58.2012C101.022 58.727 101.392 59.3502 101.626 60.0708C101.879 60.7914 102.006 61.5607 102.006 62.3787C102.006 62.5735 101.996 62.7682 101.976 62.963C101.976 63.1383 101.967 63.3233 101.947 63.518C100.896 63.4986 99.8536 63.4791 98.8214 63.4596C97.7892 63.4401 96.7472 63.4304 95.6955 63.4304C95.0528 63.4304 94.4101 63.4401 93.7674 63.4596C93.1442 63.4791 92.5113 63.4986 91.8686 63.518C91.8491 63.6154 91.8393 63.7615 91.8393 63.9562V64.336C91.8393 65.0956 91.9465 65.8064 92.1607 66.4686C92.3944 67.1308 92.7255 67.7053 93.154 68.1922C93.5824 68.6596 94.1083 69.0394 94.7315 69.3315C95.3547 69.6042 96.0753 69.7405 96.8933 69.7405C97.2828 69.7405 97.682 69.6918 98.091 69.5944C98.5 69.4776 98.8993 69.3315 99.2888 69.1562C99.6783 68.9615 100.039 68.7375 100.37 68.4843C100.72 68.2311 101.022 67.9585 101.275 67.6663L101.421 67.754L101.246 69.1854C100.662 69.6529 99.9315 70.0521 99.0551 70.3832C98.1982 70.7143 97.3023 70.8798 96.3674 70.8798C95.3158 70.8798 94.3517 70.724 93.4753 70.4124C92.6184 70.0813 91.8686 69.6139 91.2259 69.0102C90.6026 68.3869 90.1158 67.6566 89.7652 66.8192C89.4341 65.9817 89.2686 65.0761 89.2686 64.1023Z" fill="#001D86"/>
<path d="M107.469 58.0843C107.469 56.7989 107.439 55.5427 107.381 54.3158C107.342 53.0693 107.293 51.8034 107.235 50.518C107.488 50.557 107.731 50.5959 107.965 50.6349C108.199 50.6544 108.433 50.6641 108.666 50.6641C108.9 50.6641 109.134 50.6544 109.367 50.6349C109.601 50.5959 109.845 50.557 110.098 50.518C110.039 51.8034 109.981 53.0693 109.922 54.3158C109.884 55.5427 109.864 56.7989 109.864 58.0843V63.109C109.864 64.3944 109.884 65.6604 109.922 66.9068C109.981 68.1532 110.039 69.3802 110.098 70.5877C109.65 70.5487 109.173 70.5293 108.666 70.5293C108.16 70.5293 107.683 70.5487 107.235 70.5877C107.293 69.3802 107.342 68.1532 107.381 66.9068C107.439 65.6604 107.469 64.3944 107.469 63.109V58.0843Z" fill="#D7AD1A"/>
<circle cx="108.629" cy="45.0692" r="3.50562" fill="#D7AD1A"/>
<path d="M331.373 392.683L330.626 399.818C328.681 404.465 326.738 409.11 324.795 413.751C324.117 415.381 323.436 417.008 322.752 418.632C322.442 419.392 322.002 420.092 321.452 420.701C321.424 420.742 321.388 420.776 321.346 420.801C321.303 420.826 321.256 420.84 321.207 420.844C321.042 420.844 320.983 420.625 320.97 420.46C320.876 418.7 320.667 416.948 320.341 415.216C318.521 406.852 308.811 403.787 301.194 403.977C298.147 404.023 295.144 404.719 292.387 406.016C288.409 407.941 286.86 413.295 286.649 413.494L286.48 414.182L283.752 425.543C283.178 428.077 282.739 429.415 280.4 430.091C280.324 430.116 277.993 431.357 277.917 431.357C277.014 431.611 279.488 431.066 278.509 430.901L275.405 430.416L274.084 430.112L254.801 425.548C255.549 425.674 256.313 425.814 257.09 425.97L261.565 427.038L260.383 421.363C257.305 403.698 262.405 387.671 271.095 378.969C273.383 376.681 274.519 376.094 277.187 374.57L278.686 378.121C278.686 378.121 294.021 382.693 297.635 368.663C299.096 368.79 301.903 368.769 303.351 369.085C310.9 370.668 317.718 374.692 322.752 380.536C323.195 381.042 323.63 381.566 324.061 382.098L324.289 382.377C324.555 382.71 324.838 383.052 325.104 383.394L325.294 383.664C327.501 386.545 329.531 389.557 331.373 392.683Z" fill="#2D2D36"/>
<path d="M104 398.5C96.5 327.5 161.924 294.892 191.419 292.194C256.98 286.203 221.54 268.128 242.887 248.348C264.233 228.567 344.947 261.111 323.833 311.937C302.718 362.762 372.421 306.351 401.942 370.73C406.218 380.072 408.277 390.276 407.958 400.546C407.586 411.397 404.791 422.027 399.78 431.659C390.352 450.076 372.839 466.483 347.51 476.649C343.772 478.172 339.86 479.542 335.773 480.757" stroke="#CCDDE2" stroke-width="4.52" stroke-miterlimit="10"/>
<path d="M356.841 418.836C356.33 424.802 352.285 425.773 352.285 425.773C348.865 427.795 343.613 425.621 342.553 421.83C342.538 421.789 342.529 421.746 342.528 421.703C341.684 418.456 340.037 414.285 337.825 409.721C333.56 399.402 328.017 388.999 320.907 380.77C315.872 374.926 309.055 370.903 301.506 369.319C301.481 369.319 301.468 369.294 301.443 369.294C291.432 366.279 286.56 360.124 284.449 354.221C284.449 354.221 284.449 354.221 284.449 354.196C283.545 350.468 282.625 346.833 283.119 344.633C283.963 340.778 284.386 336.611 283.334 335.766C282.013 334.66 279.623 335.479 273.543 336.704C268.278 337.785 265.47 337.172 264.837 333.955C264.737 333.456 264.686 332.948 264.685 332.439C264.66 332.76 263.419 331.485 263.359 331.789C262.963 333.432 262.169 334.09 260.438 334.812C257.866 335.88 256.815 340.005 256.435 342.754C256.038 345.68 257.356 349.716 258.398 352.465C257.064 350.941 255.536 351.118 253.146 352.043C252.547 352.271 251.035 352.207 249.84 351.789C250.009 351.644 250.208 351.539 250.423 351.481C250.807 351.354 248.021 349.97 248.426 349.881C252.483 348.965 254.759 345.583 254.278 342.606C253.083 335.112 254.675 326.296 259.737 320.457C265.318 314.035 274.426 312.701 282.135 315.64C288.19 317.941 293.915 322.661 296.013 328.956C296.013 328.981 296.013 329.007 296.038 329.032C296.305 329.833 296.51 330.653 296.651 331.485C297.423 336.167 295.772 340.913 294.856 345.541C294.527 347.208 295.363 349.028 295.54 350.35C296.558 358.287 305.72 360.529 312.969 363.898C328.207 370.996 340.649 383.13 349.017 397.886C354.574 407.656 356.558 414.319 356.841 418.836Z" fill="#4D8F9B"/>
<path d="M276.512 372.996C276.347 373.085 276.182 373.173 276.03 373.275C273.294 374.843 270.778 376.768 268.549 379C259.864 387.702 254.764 403.729 257.841 421.394L259.024 427.039" stroke="#2D2D36" stroke-width="3.52" stroke-miterlimit="10"/>
<path d="M353.354 491.527C353.355 478.339 352.215 465.176 349.946 452.185C348.429 443.371 346.339 434.665 343.689 426.122C342.097 420.933 340.151 415.335 337.837 409.715C335.689 404.456 333.207 399.34 330.407 394.397C327.691 389.558 324.514 384.992 320.919 380.764C315.885 374.921 309.068 370.897 301.519 369.314C300.071 369.007 298.606 368.787 297.132 368.655" stroke="#2D2D36" stroke-width="3.52" stroke-miterlimit="10"/>
<path d="M197.296 376.758L197.081 376.72C194.502 376.288 191.857 376.511 189.387 377.366C186.916 378.222 184.7 379.684 182.941 381.618L168.502 397.35L166.813 399.207C166.708 399.321 166.609 399.441 166.517 399.566" stroke="#2D2D36" stroke-width="3.52" stroke-miterlimit="10"/>
<path d="M176.444 403.673L184.368 394.883L184.381 394.87" stroke="#2D2D36" stroke-width="3.52" stroke-miterlimit="10"/>
<path d="M245.382 449.077L282.659 462.212C286.249 463.477 290.069 463.955 293.86 463.612C297.65 463.268 301.323 462.113 304.628 460.224C307.932 458.335 310.791 455.756 313.01 452.663C315.229 449.571 316.755 446.037 317.487 442.301L326.307 397.276C326.758 394.964 326.737 392.585 326.245 390.281C325.753 387.978 324.8 385.797 323.444 383.871C323.065 383.329 322.654 382.81 322.211 382.318" stroke="#2D2D36" stroke-width="3.52" stroke-miterlimit="10"/>
<path d="M220.712 447.263C215.967 450.467 212.479 460.199 210.626 466.587C210.308 467.658 209.652 468.598 208.755 469.265C207.858 469.932 206.77 470.29 205.652 470.286C204.895 470.286 204.148 470.122 203.461 469.805C202.407 469.31 201.55 468.475 201.029 467.434C200.508 466.393 200.353 465.207 200.59 464.067C203.693 448.893 214.645 418.937 252.268 425.54C253.02 425.667 253.784 425.806 254.557 425.962L259.024 427.039L271.551 430.091L274.928 430.906C276.21 431.217 277.552 431.169 278.808 430.767C278.886 430.752 278.962 430.731 279.036 430.704C280.193 430.307 281.231 429.625 282.054 428.719C282.877 427.815 283.459 426.717 283.744 425.527L286.594 413.672L286.759 412.984L290.491 397.484" stroke="#2D2D36" stroke-width="3.52" stroke-miterlimit="10"/>
<path d="M202.363 398.678H189.595C188.139 398.678 186.744 398.1 185.714 397.071C184.685 396.041 184.106 394.645 184.106 393.189C184.106 391.734 184.685 390.338 185.714 389.308C186.744 388.279 188.139 387.701 189.595 387.701H207.683" stroke="#2D2D36" stroke-width="3.52" stroke-miterlimit="10"/>
<path d="M192.564 398.675C192.382 400.912 191.529 402.568 190.271 403.712C187.028 406.667 181.088 406.329 176.954 404.307" stroke="#2D2D36" stroke-width="3.52" stroke-miterlimit="10"/>
<path d="M168.519 397.344C164.858 392.919 165.605 386.92 168.447 382.284C176.507 369.128 194.924 371.653 206.868 377.12C216.545 381.537 225.023 388.174 233.277 394.794C237.309 398.028 241.27 401.397 245.099 404.927C245.802 405.563 246.64 406.032 247.551 406.297C248.461 406.563 249.419 406.618 250.354 406.46C251.289 406.301 252.175 405.933 252.947 405.382C253.719 404.832 254.356 404.113 254.81 403.28C256.921 399.383 259.205 395.132 259.636 393.954" stroke="#2D2D36" stroke-width="3.52" stroke-miterlimit="10"/>
<path d="M190.275 403.712C190.275 403.712 209.321 414.043 223.469 428.888" stroke="#2D2D36" stroke-width="3.52" stroke-miterlimit="10"/>
<path d="M216.064 452.866C213.952 456.471 215.768 461.766 219.758 463.033C224.854 464.677 230.241 465.217 235.561 464.616C241.367 463.94 245.226 459.148 247.767 453.66C247.951 453.251 248.047 452.808 248.049 452.361C248.051 451.913 247.958 451.47 247.777 451.06C247.597 450.65 247.332 450.283 247 449.982C246.667 449.681 246.276 449.454 245.85 449.315C245.082 449.062 244.247 449.108 243.511 449.444C242.776 449.779 242.194 450.38 241.882 451.126C241.037 453.077 239.733 455.517 238.002 456.615" stroke="#2D2D36" stroke-width="3.52" stroke-miterlimit="10"/>
<path d="M226.007 452.19C226.007 452.19 220.792 457.797 224.905 463.733C225.085 463.983 225.298 464.207 225.538 464.4" stroke="#2D2D36" stroke-width="3.52" stroke-miterlimit="10"/>
<path d="M232.885 453.115C232.885 453.115 228.063 463.966 234.248 464.76" stroke="#2D2D36" stroke-width="3.52" stroke-miterlimit="10"/>
<path d="M404.069 491.536H105.466" stroke="#2D2D36" stroke-width="3.52" stroke-miterlimit="10"/>
<path d="M222.937 471.088H193.159C192.856 473.899 191.525 476.499 189.42 478.387C187.315 480.275 184.586 481.317 181.759 481.314H81.6698C81.6753 484.021 82.7532 486.615 84.6675 488.529C86.5814 490.443 89.1759 491.521 91.8831 491.527H222.937C225.648 491.526 228.249 490.451 230.169 488.536C232.09 486.622 233.174 484.025 233.184 481.314V474.448C233.184 473.553 232.828 472.693 232.195 472.06C231.562 471.427 230.702 471.071 229.806 471.071L222.937 471.088Z" stroke="#2D2D36" stroke-width="3.52" stroke-miterlimit="10"/>
<path d="M176.954 404.307C177.832 405.521 178.463 406.895 178.812 408.352L192.918 467.183C193.23 468.46 193.311 469.782 193.159 471.088C192.856 473.899 191.525 476.499 189.42 478.387C187.315 480.275 184.587 481.318 181.759 481.314H79.8123C77.2377 481.314 74.7378 480.446 72.7167 478.851C70.6951 477.257 69.2697 475.027 68.6702 472.524L54.5895 413.697C54.1846 412.012 54.1673 410.259 54.5384 408.566C54.9095 406.874 55.6594 405.288 56.7322 403.928C57.8046 402.568 59.1717 401.468 60.7305 400.713C62.2893 399.957 63.9993 399.565 65.7316 399.566H167.67C169.344 399.562 171 399.929 172.516 400.639C174.033 401.349 175.374 402.385 176.443 403.674L176.954 404.307Z" stroke="#2D2D36" stroke-width="3.52" stroke-miterlimit="10"/>
<path d="M301.506 369.301C301.481 369.301 301.468 369.276 301.443 369.276C291.432 366.261 286.56 360.105 284.449 354.203C284.449 354.203 284.449 354.203 284.449 354.177C282.798 349.575 282.836 345.121 283.432 342.461C283.788 341.052 284.014 339.614 284.107 338.163C284.246 334.055 281.232 335.06 272.61 336.778C268.65 337.58 266.117 336.077 264.85 333.941C264.727 333.755 264.62 333.558 264.529 333.354C263.938 332.11 263.693 330.731 263.82 329.36" stroke="#2D2D36" stroke-width="3.52" stroke-miterlimit="10"/>
<path d="M258.859 353.021C258.707 352.806 258.551 352.599 258.399 352.434C257.064 350.91 255.536 351.088 253.146 352.012C252.547 352.24 251.035 352.177 249.84 351.759C248.835 351.4 248.084 350.779 248.426 349.85C248.514 349.659 248.645 349.491 248.808 349.359C248.971 349.226 249.162 349.133 249.367 349.086C249.766 348.986 250.169 348.905 250.575 348.846C254.675 347.929 253.758 343.184 253.26 340.207C252.053 332.717 253.657 323.901 258.77 318.062C264.402 311.64 273.615 310.302 281.396 313.241C288.24 315.825 294.679 321.431 296.013 328.926C296.013 328.951 296.013 328.976 296.039 329.002C296.064 329.027 296.039 329.065 296.039 329.09C296.828 333.773 296.039 338.848 295.122 343.479C294.573 346.224 294.78 348.466 295.545 350.319C297.938 356.386 306.015 358.502 312.526 361.503C327.932 368.601 340.485 380.735 348.946 395.491C355.625 407.195 357.208 414.394 356.841 418.835C356.33 424.801 352.285 425.772 352.285 425.772C348.865 427.795 343.609 425.62 342.553 421.829C342.538 421.788 342.529 421.745 342.528 421.702C341.684 418.455 340.037 414.284 337.825 409.72" stroke="#2D2D36" stroke-width="3.52" stroke-miterlimit="10"/>
<path d="M263.803 329.36C263.803 331.619 262.739 333.848 260.425 334.798C257.824 335.87 256.769 338.695 256.389 341.443C255.858 345.468 256.724 349.553 258.842 353.016C260.805 356.276 264.001 359.869 268.527 359.869C276.82 359.869 280.375 355.87 280.375 355.87" stroke="#2D2D36" stroke-width="3.52" stroke-miterlimit="10"/>
<path d="M272.412 342.74C273.191 342.74 273.822 342.109 273.822 341.33C273.822 340.552 273.191 339.92 272.412 339.92C271.633 339.92 271.002 340.552 271.002 341.33C271.002 342.109 271.633 342.74 272.412 342.74Z" fill="#2D2D36"/>
<path d="M260.007 343.563C260.786 343.563 261.418 342.932 261.418 342.153C261.418 341.375 260.786 340.743 260.007 340.743C259.228 340.743 258.597 341.375 258.597 342.153C258.597 342.932 259.228 343.563 260.007 343.563Z" fill="#2D2D36"/>
<path d="M266.091 340.004C266.091 340.004 265.386 345.573 265.669 346.337C265.952 347.101 267.717 346.227 267.717 346.227" stroke="#2D2D36" stroke-width="3.52" stroke-miterlimit="10"/>
<path d="M268.705 351.099C271.724 352.21 274.839 350.795 275.751 348.081" stroke="#2D2D36" stroke-width="3.52" stroke-miterlimit="10"/>
<path d="M279.711 343.368C281.758 340.469 281.011 336.419 278.042 334.321C275.073 332.224 271.006 332.873 268.959 335.772C266.911 338.67 267.658 342.721 270.627 344.818C273.596 346.916 277.663 346.266 279.711 343.368Z" stroke="#2D2D36" stroke-width="3.52" stroke-miterlimit="10"/>
<path d="M263.22 344.197C265.268 341.299 264.521 337.248 261.552 335.151C258.583 333.053 254.516 333.703 252.468 336.601C250.42 339.5 251.167 343.55 254.136 345.648C257.105 347.745 261.172 347.096 263.22 344.197Z" stroke="#2D2D36" stroke-width="3.52" stroke-miterlimit="10"/>
<path d="M257.727 335.923C258.9 335.919 260.03 336.36 260.892 337.155C261.754 337.951 262.282 339.043 262.372 340.212C262.419 340.793 262.348 341.378 262.164 341.93C261.979 342.483 261.686 342.993 261.299 343.429C260.909 343.872 260.433 344.231 259.9 344.485C259.368 344.739 258.79 344.882 258.2 344.907H257.964C256.79 344.911 255.659 344.47 254.798 343.673C253.936 342.876 253.408 341.783 253.319 340.613C253.273 340.032 253.345 339.448 253.53 338.895C253.715 338.342 254.01 337.832 254.396 337.396C254.787 336.955 255.262 336.597 255.794 336.343C256.325 336.089 256.902 335.945 257.491 335.918H257.727V335.923ZM257.727 334.964H257.444C256.733 334.996 256.035 335.171 255.392 335.477C254.749 335.784 254.174 336.217 253.701 336.75C253.229 337.283 252.868 337.906 252.641 338.581C252.413 339.256 252.324 339.97 252.378 340.681C252.492 342.089 253.131 343.402 254.168 344.36C255.205 345.319 256.564 345.853 257.976 345.857H258.259C258.971 345.825 259.669 345.651 260.312 345.344C260.955 345.037 261.53 344.604 262.003 344.071C262.475 343.538 262.836 342.915 263.063 342.24C263.29 341.565 263.38 340.851 263.326 340.14C263.211 338.733 262.573 337.42 261.536 336.461C260.499 335.502 259.14 334.968 257.727 334.964Z" fill="#E2E2E2"/>
<path d="M267.822 339.915L264.36 340.092" stroke="#2D2D36" stroke-width="3.52" stroke-miterlimit="10"/>
<path opacity="0.53" d="M278.886 342.786C280.621 340.331 279.989 336.901 277.475 335.125C274.961 333.349 271.517 333.899 269.783 336.354C268.048 338.809 268.68 342.239 271.194 344.015C273.709 345.791 277.152 345.241 278.886 342.786Z" fill="#E2E2E2"/>
<path opacity="0.53" d="M262.396 343.615C264.13 341.161 263.498 337.731 260.984 335.955C258.471 334.178 255.027 334.729 253.292 337.184C251.558 339.639 252.19 343.069 254.704 344.844C257.218 346.621 260.662 346.07 262.396 343.615Z" fill="#E2E2E2"/>
<path d="M270.997 359.869L278.686 378.134C278.686 378.134 293.518 382.124 297.124 368.09" stroke="#2D2D36" stroke-width="3.52" stroke-miterlimit="10"/>
<path d="M125.12 454.532C130.926 452.701 133.966 445.927 131.908 439.402C129.851 432.878 123.476 429.072 117.67 430.903C111.863 432.734 108.824 439.508 110.881 446.032C112.938 452.557 119.313 456.363 125.12 454.532Z" fill="#4D8F9B"/>
<path d="M268.946 491.527C268.781 476.661 266.159 461.972 264.951 455.977" stroke="#2D2D36" stroke-width="3.52" stroke-miterlimit="10"/>
</svg>
